<svg width="208" height="200" viewBox="0 0 208 200" fill="none" xmlns="http://www.w3.org/2000/svg">
<g filter="url(#filter0_i_31_87)">
<rect x="4" y="177" width="200" height="8" fill="#C9EDDC"/>
<path d="M35.2447 133.952V158.032C35.2447 161.168 34.274 163.707 32.3327 165.648C30.3914 167.515 27.8527 168.448 24.7167 168.448H16.6527C13.5167 168.448 10.978 167.515 9.03669 165.648C7.09536 163.707 6.12469 161.168 6.12469 158.032V99.568C6.12469 96.432 7.09536 93.9307 9.03669 92.064C10.978 90.1227 13.5167 89.152 16.6527 89.152H24.7167C27.8527 89.152 30.3914 90.1227 32.3327 92.064C34.274 93.9307 35.2447 96.432 35.2447 99.568V124.656L24.6047 123.536V100.128C24.6047 99.7547 24.418 99.568 24.0447 99.568H17.3247C16.9514 99.568 16.7647 99.7547 16.7647 100.128V157.472C16.7647 157.845 16.9514 158.032 17.3247 158.032H24.0447C24.418 158.032 24.6047 157.845 24.6047 157.472V133.952H35.2447ZM78.5274 157.584L77.6314 168H50.8634V100.016H49.1834L50.3034 89.6H61.5034V157.584H78.5274ZM119.446 158.032C119.446 161.168 118.475 163.707 116.534 165.648C114.593 167.515 112.054 168.448 108.918 168.448H100.854C97.7179 168.448 95.1793 167.515 93.2379 165.648C91.2966 163.707 90.3259 161.168 90.3259 158.032V99.568C90.3259 96.432 91.2966 93.9307 93.2379 92.064C95.1793 90.1227 97.7179 89.152 100.854 89.152H108.918C112.054 89.152 114.593 90.1227 116.534 92.064C118.475 93.9307 119.446 96.432 119.446 99.568V158.032ZM101.526 99.568C101.153 99.568 100.966 99.7547 100.966 100.128V157.472C100.966 157.845 101.153 158.032 101.526 158.032H108.246C108.619 158.032 108.806 157.845 108.806 157.472V100.128C108.806 99.7547 108.619 99.568 108.246 99.568H101.526ZM162.531 157.584C162.531 160.72 161.56 163.259 159.619 165.2C157.678 167.067 155.139 168 152.003 168H133.411V100.016H131.731L132.851 89.6H152.003C155.139 89.6 157.678 90.5707 159.619 92.512C161.56 94.3787 162.531 96.88 162.531 100.016V157.584ZM151.331 100.016H144.051V157.584H151.331C151.704 157.584 151.891 157.397 151.891 157.024V100.576C151.891 100.203 151.704 100.016 151.331 100.016ZM201.92 157.584L201.024 168H176.496V100.016H174.816L175.936 89.6H201.92L200.8 100.016H187.136V123.536H199.68L198.56 133.952H187.136V157.584H201.92Z" fill="#C9EDDC"/>
<path d="M15.515 62.8V72.976C15.515 73.296 15.675 73.456 15.995 73.456H19.835C20.155 73.456 20.315 73.296 20.315 72.976V55.696L12.731 52.336C12.155 52.144 11.355 51.824 10.331 51.376C9.307 50.864 8.379 50.128 7.547 49.168C6.779 48.208 6.395 46.896 6.395 45.232V23.344C6.395 20.656 7.227 18.512 8.891 16.912C10.555 15.248 12.731 14.416 15.419 14.416H20.411C23.099 14.416 25.275 15.248 26.939 16.912C28.603 18.512 29.435 20.656 29.435 23.344V37.552L20.315 36.784V23.824C20.315 23.504 20.155 23.344 19.835 23.344H15.995C15.675 23.344 15.515 23.504 15.515 23.824V43.888L23.099 47.248C23.675 47.504 24.475 47.856 25.499 48.304C26.523 48.752 27.419 49.456 28.187 50.416C29.019 51.376 29.435 52.688 29.435 54.352V73.456C29.435 76.144 28.603 78.32 26.939 79.984C25.275 81.584 23.099 82.384 20.411 82.384H15.419C12.731 82.384 10.555 81.584 8.891 79.984C7.227 78.32 6.395 76.144 6.395 73.456V62.8H15.515ZM38.1238 23.728V14.8H64.5238V23.728H55.8838V82H46.7638V23.728H38.1238ZM95.957 73.072L95.189 82H74.165V23.728H72.725L73.685 14.8H95.957L94.997 23.728H83.285V43.888H94.037L93.077 52.816H83.285V73.072H95.957ZM122.319 14.8H131.439L125.487 82H109.551L103.599 14.8H112.719L117.519 67.888L122.319 14.8ZM162.79 73.072L162.022 82H140.998V23.728H139.558L140.518 14.8H162.79L161.83 23.728H150.118V43.888H160.87L159.91 52.816H150.118V73.072H162.79ZM192.511 14.8H201.631V82H192.511L181.951 40.912V82H172.831V23.728H171.391L172.351 14.8H182.431L193.087 57.52L192.511 14.8Z" fill="#C9EDDC"/>
</g>
<defs>
<filter id="filter0_i_31_87" x="4" y="14.416" width="200" height="174.584" filterUnits="userSpaceOnUse" color-interpolation-filters="sRGB">
<feFlood flood-opacity="0" result="BackgroundImageFix"/>
<feBlend mode="normal" in="SourceGraphic" in2="BackgroundImageFix" result="shape"/>
<feColorMatrix in="SourceAlpha" type="matrix" values="0 0 0 0 0 0 0 0 0 0 0 0 0 0 0 0 0 0 127 0" result="hardAlpha"/>
<feOffset dy="4"/>
<feGaussianBlur stdDeviation="2"/>
<feComposite in2="hardAlpha" operator="arithmetic" k2="-1" k3="1"/>
<feColorMatrix type="matrix" values="0 0 0 0 0 0 0 0 0 0 0 0 0 0 0 0 0 0 0.25 0"/>
<feBlend mode="normal" in2="shape" result="effect1_innerShadow_31_87"/>
</filter>
</defs>
</svg>
