<svg width="208" height="200" viewBox="0 0 208 200" fill="none" xmlns="http://www.w3.org/2000/svg">
<g filter="url(#filter0_i_31_87)">
<rect x="4" y="177" width="200" height="8" fill="#393E46"/>
<path d="M35.2447 133.952V158.032C35.2447 161.168 34.274 163.707 32.3327 165.648C30.3914 167.515 27.8527 168.448 24.7167 168.448H16.6527C13.5167 168.448 10.978 167.515 9.03669 165.648C7.09536 163.707 6.12469 161.168 6.12469 158.032V99.5681C6.12469 96.4321 7.09536 93.9307 9.03669 92.0641C10.978 90.1227 13.5167 89.1521 16.6527 89.1521H24.7167C27.8527 89.1521 30.3914 90.1227 32.3327 92.0641C34.274 93.9307 35.2447 96.4321 35.2447 99.5681V124.656L24.6047 123.536V100.128C24.6047 99.7547 24.418 99.5681 24.0447 99.5681H17.3247C16.9514 99.5681 16.7647 99.7547 16.7647 100.128V157.472C16.7647 157.845 16.9514 158.032 17.3247 158.032H24.0447C24.418 158.032 24.6047 157.845 24.6047 157.472V133.952H35.2447ZM78.5274 157.584L77.6314 168H50.8634V100.016H49.1834L50.3034 89.6001H61.5034V157.584H78.5274ZM119.446 158.032C119.446 161.168 118.475 163.707 116.534 165.648C114.593 167.515 112.054 168.448 108.918 168.448H100.854C97.7179 168.448 95.1793 167.515 93.2379 165.648C91.2966 163.707 90.3259 161.168 90.3259 158.032V99.5681C90.3259 96.4321 91.2966 93.9307 93.2379 92.0641C95.1793 90.1227 97.7179 89.1521 100.854 89.1521H108.918C112.054 89.1521 114.593 90.1227 116.534 92.0641C118.475 93.9307 119.446 96.4321 119.446 99.5681V158.032ZM101.526 99.5681C101.153 99.5681 100.966 99.7547 100.966 100.128V157.472C100.966 157.845 101.153 158.032 101.526 158.032H108.246C108.619 158.032 108.806 157.845 108.806 157.472V100.128C108.806 99.7547 108.619 99.5681 108.246 99.5681H101.526ZM162.531 157.584C162.531 160.72 161.56 163.259 159.619 165.2C157.678 167.067 155.139 168 152.003 168H133.411V100.016H131.731L132.851 89.6001H152.003C155.139 89.6001 157.678 90.5707 159.619 92.5121C161.56 94.3787 162.531 96.8801 162.531 100.016V157.584ZM151.331 100.016H144.051V157.584H151.331C151.704 157.584 151.891 157.397 151.891 157.024V100.576C151.891 100.203 151.704 100.016 151.331 100.016ZM201.92 157.584L201.024 168H176.496V100.016H174.816L175.936 89.6001H201.92L200.8 100.016H187.136V123.536H199.68L198.56 133.952H187.136V157.584H201.92Z" fill="#393E46"/>
<path d="M15.515 62.8001V72.9761C15.515 73.2961 15.675 73.4561 15.995 73.4561H19.835C20.155 73.4561 20.315 73.2961 20.315 72.9761V55.6961L12.731 52.3361C12.155 52.1441 11.355 51.8241 10.331 51.3761C9.307 50.8641 8.379 50.1281 7.547 49.1681C6.779 48.2081 6.395 46.8961 6.395 45.2321V23.3441C6.395 20.6561 7.227 18.5121 8.891 16.9121C10.555 15.2481 12.731 14.4161 15.419 14.4161H20.411C23.099 14.4161 25.275 15.2481 26.939 16.9121C28.603 18.5121 29.435 20.6561 29.435 23.3441V37.5521L20.315 36.7841V23.8241C20.315 23.5041 20.155 23.3441 19.835 23.3441H15.995C15.675 23.3441 15.515 23.5041 15.515 23.8241V43.8881L23.099 47.2481C23.675 47.5041 24.475 47.8561 25.499 48.3041C26.523 48.7521 27.419 49.4561 28.187 50.4161C29.019 51.3761 29.435 52.6881 29.435 54.3521V73.4561C29.435 76.1441 28.603 78.3201 26.939 79.9841C25.275 81.5841 23.099 82.3841 20.411 82.3841H15.419C12.731 82.3841 10.555 81.5841 8.891 79.9841C7.227 78.3201 6.395 76.1441 6.395 73.4561V62.8001H15.515ZM38.1238 23.7281V14.8001H64.5238V23.7281H55.8838V82.0001H46.7638V23.7281H38.1238ZM95.957 73.0721L95.189 82.0001H74.165V23.7281H72.725L73.685 14.8001H95.957L94.997 23.7281H83.285V43.8881H94.037L93.077 52.8161H83.285V73.0721H95.957ZM122.319 14.8001H131.439L125.487 82.0001H109.551L103.599 14.8001H112.719L117.519 67.8881L122.319 14.8001ZM162.79 73.0721L162.022 82.0001H140.998V23.7281H139.558L140.518 14.8001H162.79L161.83 23.7281H150.118V43.8881H160.87L159.91 52.8161H150.118V73.0721H162.79ZM192.511 14.8001H201.631V82.0001H192.511L181.951 40.9121V82.0001H172.831V23.7281H171.391L172.351 14.8001H182.431L193.087 57.5201L192.511 14.8001Z" fill="#393E46"/>
</g>
<defs>
<filter id="filter0_i_31_87" x="4" y="14.416" width="200" height="174.584" filterUnits="userSpaceOnUse" color-interpolation-filters="sRGB">
<feFlood flood-opacity="0" result="BackgroundImageFix"/>
<feBlend mode="normal" in="SourceGraphic" in2="BackgroundImageFix" result="shape"/>
<feColorMatrix in="SourceAlpha" type="matrix" values="0 0 0 0 0 0 0 0 0 0 0 0 0 0 0 0 0 0 127 0" result="hardAlpha"/>
<feOffset dy="4"/>
<feGaussianBlur stdDeviation="2"/>
<feComposite in2="hardAlpha" operator="arithmetic" k2="-1" k3="1"/>
<feColorMatrix type="matrix" values="0 0 0 0 0 0 0 0 0 0 0 0 0 0 0 0 0 0 0.25 0"/>
<feBlend mode="normal" in2="shape" result="effect1_innerShadow_31_87"/>
</filter>
</defs>
</svg>
